<?xml version="1.0" standalone="no"?>
<!DOCTYPE svg PUBLIC "-//W3C//DTD SVG 20010904//EN"
 "http://www.w3.org/TR/2001/REC-SVG-20010904/DTD/svg10.dtd">
<svg version="1.0" xmlns="http://www.w3.org/2000/svg"
 width="300.000000pt" height="202.000000pt" viewBox="0 0 300.000000 202.000000"
 preserveAspectRatio="xMidYMid meet">
<metadata>
Created by potrace 1.10, written by Peter Selinger 2001-2011
</metadata>
<g transform="translate(0.000000,202.000000) scale(0.100000,-0.100000)"
fill="#000000" stroke="none">
<path d="M835 1188 c-26 -72 -105 -334 -105 -349 0 -23 21 -21 28 2 3 11 1 11
-8 -1 -9 -12 -11 -8 -6 18 10 57 98 322 107 322 5 0 6 -6 4 -12 -43 -127 -96
-301 -93 -304 7 -7 108 317 102 327 -8 13 -24 11 -29 -3z"/>
<path d="M1267 1153 c-15 -25 -107 -255 -107 -268 0 -10 10 -15 29 -15 25 0
32 6 42 35 13 34 15 35 64 35 49 0 52 -2 68 -35 12 -26 23 -35 41 -35 14 0 27
4 31 10 5 9 -88 242 -108 268 -10 13 -53 17 -60 5z m109 -137 c30 -71 54 -130
54 -132 0 -2 -11 -4 -24 -4 -19 0 -28 8 -37 35 -13 35 -14 35 -71 35 -57 0
-58 -1 -72 -35 -10 -24 -22 -35 -35 -35 -12 0 -21 5 -21 11 0 11 72 184 97
232 10 19 21 27 35 25 15 -2 32 -32 74 -132z"/>
<path d="M1472 1152 c-9 -7 -12 -42 -10 -143 l3 -134 30 0 30 0 3 129 c3 146
-9 177 -56 148z m46 -140 l3 -132 -26 0 -25 0 0 128 c0 71 3 132 7 136 4 4 14
5 23 4 12 -3 15 -26 18 -136z"/>
<path d="M1677 1153 c-14 -13 -6 -32 33 -82 44 -56 44 -54 -8 -119 -19 -23
-33 -44 -31 -47 5 -5 89 102 89 113 0 4 -18 30 -40 57 -22 28 -40 56 -40 63 0
27 40 10 71 -30 18 -24 35 -45 37 -48 2 -3 13 6 24 20 46 59 59 70 78 70 29 0
25 -11 -25 -75 -27 -36 -42 -62 -36 -69 4 -6 27 -36 51 -66 42 -54 42 -55 19
-59 -18 -2 -33 8 -64 43 -22 25 -43 46 -46 46 -3 0 -20 -20 -39 -45 -40 -53
-76 -61 -86 -20 -6 24 -10 26 -63 23 -53 -3 -56 -5 -59 -31 l-3 -27 88 1 88 0
40 46 40 45 33 -46 c26 -36 39 -46 62 -46 16 0 32 5 35 10 4 6 -16 39 -43 73
l-49 63 42 57 c24 31 46 53 49 50 3 -4 6 1 6 11 0 15 9 17 68 14 61 -3 67 -5
70 -25 3 -20 -1 -23 -32 -23 -28 0 -36 -4 -36 -17 0 -12 3 -14 8 -6 4 6 21 13
37 15 26 3 30 7 30 33 l0 30 -108 2 -108 1 -33 -44 -34 -44 -28 38 c-15 20
-33 40 -38 44 -14 10 -41 10 -49 1z m-27 -253 c0 -17 -7 -20 -50 -20 -43 0
-50 3 -50 20 0 17 7 20 50 20 43 0 50 -3 50 -20z"/>
<path d="M2126 1138 c-7 -13 -26 -56 -41 -97 l-28 -75 -23 50 c-12 27 -22 45
-23 39 0 -5 10 -32 23 -60 l22 -50 32 77 c17 41 36 87 42 102 10 27 50 38 50
14 0 -26 -99 -253 -114 -263 -24 -15 -38 7 -86 128 -23 59 -44 106 -47 104 -2
-2 18 -57 44 -121 37 -92 52 -118 70 -122 12 -3 26 -3 31 0 16 10 115 265 108
281 -8 22 -44 18 -60 -7z"/>
<path d="M2287 1128 c-8 -18 -33 -77 -56 -130 -51 -120 -51 -130 -9 -126 27 2
34 9 42 36 9 31 11 32 62 32 52 0 54 -1 68 -35 12 -27 21 -35 40 -35 14 0 28
4 31 10 6 9 -88 242 -108 268 -19 24 -56 14 -70 -20z m119 -111 c30 -71 54
-130 54 -133 0 -2 -11 -4 -24 -4 -19 0 -27 8 -36 35 -11 35 -12 35 -71 35 -58
0 -59 -1 -73 -35 -10 -24 -22 -35 -35 -35 -12 0 -21 5 -21 10 0 10 82 206 101
242 6 11 19 18 31 16 15 -2 32 -32 74 -131z"/>
<path d="M604 1082 c-54 -37 -69 -53 -69 -72 0 -19 15 -35 69 -72 38 -27 76
-48 83 -48 31 0 8 31 -52 69 -36 23 -65 46 -65 51 0 5 29 29 65 52 61 40 82
68 52 68 -7 0 -45 -21 -83 -48z m82 29 c-3 -5 -33 -26 -66 -47 -35 -23 -59
-45 -58 -54 2 -8 31 -34 66 -58 86 -60 71 -65 -17 -6 -45 30 -71 54 -71 65 0
12 25 35 67 64 65 43 90 55 79 36z"/>
<path d="M890 1121 c0 -10 40 -42 93 -76 51 -33 27 -5 -28 31 -30 21 -53 39
-50 42 2 3 36 -16 75 -42 91 -60 91 -72 0 -132 -39 -26 -73 -45 -76 -41 -3 3
25 26 63 52 82 56 71 56 -15 0 -58 -38 -79 -65 -49 -65 23 0 152 94 155 113 5
24 -11 42 -80 88 -55 38 -88 49 -88 30z"/>
</g>
</svg>
